<svg width="2712" height="1722" xmlns="http://www.w3.org/2000/svg" xmlns:xlink="http://www.w3.org/1999/xlink" xml:space="preserve" overflow="hidden"><g transform="translate(3 3)"><path d="M0.000360892 0.000360892 510.386 0.000360892 510.386 160.984 0.000360892 160.984Z" fill="#BCD5ED" fill-rule="evenodd"/><path d="M510.386 0.000360892 2704.39 0.000360892 2704.39 160.984 510.386 160.984Z" fill="#BCD5ED" fill-rule="evenodd"/><path d="M0.000360892 582.311 510.386 582.311 510.386 748.488 0.000360892 748.488Z" fill="#BCD5ED" fill-rule="evenodd"/><path d="M510.386 582.311 2262.71 582.311 2262.71 748.488 510.386 748.488Z" fill="#BCD5ED" fill-rule="evenodd"/><path d="M2262.71 582.311 2704.39 582.311 2704.39 1065.26 2262.71 1065.26Z" fill="#BCD5ED" fill-rule="evenodd"/><path d="M0.000360892 1226.25 510.386 1226.25 510.386 1480.7 0.000360892 1480.7Z" fill="#BCD5ED" fill-rule="evenodd"/><path d="M510.386 1226.25 2704.39 1226.25 2704.39 1480.7 510.386 1480.7Z" fill="#BCD5ED" fill-rule="evenodd"/><path d="M510.386-2.29131 510.386 1716.68" stroke="#000000" stroke-width="4.58333" stroke-linejoin="round" stroke-miterlimit="10" fill="none" fill-rule="evenodd"/><path d="M1159.82 746.196 1159.82 1067.55" stroke="#000000" stroke-width="4.58333" stroke-linejoin="round" stroke-miterlimit="10" fill="none" fill-rule="evenodd"/><path d="M1752.65 746.196 1752.65 1067.55" stroke="#000000" stroke-width="4.58333" stroke-linejoin="round" stroke-miterlimit="10" fill="none" fill-rule="evenodd"/><path d="M2262.71 580.019 2262.71 1067.55" stroke="#000000" stroke-width="4.58333" stroke-linejoin="round" stroke-miterlimit="10" fill="none" fill-rule="evenodd"/><path d="M-2.29131 160.984 2706.68 160.984" stroke="#000000" stroke-width="4.58333" stroke-linejoin="round" stroke-miterlimit="10" fill="none" fill-rule="evenodd"/><path d="M-2.29131 319.544 2706.68 319.544" stroke="#000000" stroke-width="4.58333" stroke-linejoin="round" stroke-miterlimit="10" fill="none" fill-rule="evenodd"/><path d="M-2.29131 582.311 2706.68 582.311" stroke="#000000" stroke-width="4.58333" stroke-linejoin="round" stroke-miterlimit="10" fill="none" fill-rule="evenodd"/><path d="M-2.29131 748.488 2265 748.488" stroke="#000000" stroke-width="4.58333" stroke-linejoin="round" stroke-miterlimit="10" fill="none" fill-rule="evenodd"/><path d="M-2.29131 1065.26 2706.68 1065.26" stroke="#000000" stroke-width="4.58333" stroke-linejoin="round" stroke-miterlimit="10" fill="none" fill-rule="evenodd"/><path d="M-2.29131 1226.25 2706.68 1226.25" stroke="#000000" stroke-width="4.58333" stroke-linejoin="round" stroke-miterlimit="10" fill="none" fill-rule="evenodd"/><path d="M-2.29131 1480.7 2706.68 1480.7" stroke="#000000" stroke-width="4.58333" stroke-linejoin="round" stroke-miterlimit="10" fill="none" fill-rule="evenodd"/><path d="M0.000360892-2.29131 0.000360892 1716.68" stroke="#000000" stroke-width="4.58333" stroke-linejoin="round" stroke-miterlimit="10" fill="none" fill-rule="evenodd"/><path d="M2704.39-2.29131 2704.39 1716.68" stroke="#000000" stroke-width="4.58333" stroke-linejoin="round" stroke-miterlimit="10" fill="none" fill-rule="evenodd"/><path d="M-2.29131 0.000360892 2706.68 0.000360892" stroke="#000000" stroke-width="4.58333" stroke-linejoin="round" stroke-miterlimit="10" fill="none" fill-rule="evenodd"/><path d="M-2.29131 1714.39 2706.68 1714.39" stroke="#000000" stroke-width="4.58333" stroke-linejoin="round" stroke-miterlimit="10" fill="none" fill-rule="evenodd"/><text font-family="Microsoft JhengHei,Microsoft JhengHei_MSFontService,sans-serif" font-weight="400" font-size="64" transform="matrix(1 0 0 1 1511.14 103)">議程</text><g><text font-family="Microsoft JhengHei,Microsoft JhengHei_MSFontService,sans-serif" font-weight="400" font-size="64" transform="matrix(1 0 0 1 32.0837 103)">時間</text></g><text font-family="Microsoft JhengHei,Microsoft JhengHei_MSFontService,sans-serif" font-weight="400" font-size="64" transform="matrix(1 0 0 1 1511.14 263)">報到</text><g><text font-family="Calibri,Calibri_MSFontService,sans-serif" font-weight="400" font-size="64" transform="matrix(1 0 0 1 32.0837 262)">09:00</text></g><text font-family="Calibri,Calibri_MSFontService,sans-serif" font-weight="400" font-size="64" transform="matrix(1 0 0 1 179.896 262)">-</text><text font-family="Calibri,Calibri_MSFontService,sans-serif" font-weight="400" font-size="64" transform="matrix(1 0 0 1 213.698 262)">09:20</text><text font-family="Microsoft JhengHei,Microsoft JhengHei_MSFontService,sans-serif" font-weight="400" font-size="64" transform="matrix(1 0 0 1 1463 435)">主題演講</text><text font-family="Calibri,Calibri_MSFontService,sans-serif" font-weight="400" font-size="64" transform="matrix(1 0 0 1 1719.67 435)">II</text><text font-family="Microsoft JhengHei,Microsoft JhengHei_MSFontService,sans-serif" font-weight="400" font-size="64" transform="matrix(1 0 0 1 821.06 512)">林昭安</text><text font-family="Microsoft JhengHei,Microsoft JhengHei_MSFontService,sans-serif" font-weight="400" font-size="64" transform="matrix(1 0 0 1 1151.06 512)">教授</text><text font-family="Microsoft JhengHei,Microsoft JhengHei_MSFontService,sans-serif" font-weight="400" font-size="64" transform="matrix(1 0 0 1 1481.06 512)">國立清華大學</text><text font-family="Microsoft JhengHei,Microsoft JhengHei_MSFontService,sans-serif" font-weight="400" font-size="64" transform="matrix(1 0 0 1 1880.38 512)">動力機械工程學系</text><g><text font-family="Calibri,Calibri_MSFontService,sans-serif" font-weight="400" font-size="64" transform="matrix(1 0 0 1 32.0837 472)">09:20</text></g><text font-family="Calibri,Calibri_MSFontService,sans-serif" font-weight="400" font-size="64" transform="matrix(1 0 0 1 179.896 472)">-</text><text font-family="Calibri,Calibri_MSFontService,sans-serif" font-weight="400" font-size="64" transform="matrix(1 0 0 1 213.698 472)">10:10</text><text font-family="Microsoft JhengHei,Microsoft JhengHei_MSFontService,sans-serif" font-weight="400" font-size="64" transform="matrix(1 0 0 1 2339.18 885)">海報發表</text><text font-family="Calibri,Calibri_MSFontService,sans-serif" font-weight="400" font-size="64" transform="matrix(1 0 0 1 2595.84 885)">II</text><text font-family="Microsoft JhengHei,Microsoft JhengHei_MSFontService,sans-serif" font-weight="400" font-size="64" transform="matrix(1 0 0 1 1322.38 688)">茶敘</text><g><text font-family="Calibri,Calibri_MSFontService,sans-serif" font-weight="400" font-size="64" transform="matrix(1 0 0 1 32.0837 687)">10:10</text></g><text font-family="Calibri,Calibri_MSFontService,sans-serif" font-weight="400" font-size="64" transform="matrix(1 0 0 1 179.896 687)">-</text><text font-family="Calibri,Calibri_MSFontService,sans-serif" font-weight="400" font-size="64" transform="matrix(1 0 0 1 213.698 687)">10:30</text><text font-family="Microsoft JhengHei,Microsoft JhengHei_MSFontService,sans-serif" font-weight="400" font-size="64" transform="matrix(1 0 0 1 1943.51 929)">論壇</text><text font-family="Microsoft JhengHei,Microsoft JhengHei_MSFontService,sans-serif" font-weight="400" font-size="64" transform="matrix(1 0 0 1 1392.07 929)">論壇</text><text font-family="Microsoft JhengHei,Microsoft JhengHei_MSFontService,sans-serif" font-weight="400" font-size="64" transform="matrix(1 0 0 1 770.936 929)">論壇</text><g><text font-family="Calibri,Calibri_MSFontService,sans-serif" font-weight="400" font-size="64" transform="matrix(1 0 0 1 32.0837 928)">10:30</text></g><text font-family="Calibri,Calibri_MSFontService,sans-serif" font-weight="400" font-size="64" transform="matrix(1 0 0 1 179.896 928)">-</text><text font-family="Calibri,Calibri_MSFontService,sans-serif" font-weight="400" font-size="64" transform="matrix(1 0 0 1 213.698 928)">12:00</text><text font-family="Microsoft JhengHei,Microsoft JhengHei_MSFontService,sans-serif" font-weight="400" font-size="64" transform="matrix(1 0 0 1 1356.16 1168)">閉幕</text><text font-family="Calibri,Calibri_MSFontService,sans-serif" font-weight="400" font-size="64" transform="matrix(1 0 0 1 1498.82 1168)">(</text><text font-family="Microsoft JhengHei,Microsoft JhengHei_MSFontService,sans-serif" font-weight="400" font-size="64" transform="matrix(1 0 0 1 1518.3 1168)">餐盒待議</text><text font-family="Calibri,Calibri_MSFontService,sans-serif" font-weight="400" font-size="64" transform="matrix(1 0 0 1 1774.97 1168)">)</text><g><text font-family="Calibri,Calibri_MSFontService,sans-serif" font-weight="400" font-size="64" transform="matrix(1 0 0 1 32.0837 1167)">12:00</text></g><text font-family="Calibri,Calibri_MSFontService,sans-serif" font-weight="400" font-size="64" transform="matrix(1 0 0 1 179.896 1167)">-</text><text font-family="Calibri,Calibri_MSFontService,sans-serif" font-weight="400" font-size="64" transform="matrix(1 0 0 1 199.375 1167)">13:00</text><text fill="#FF0000" font-family="Microsoft JhengHei,Microsoft JhengHei_MSFontService,sans-serif" font-weight="400" font-size="64" transform="matrix(1 0 0 1 1446.97 1376)">會後交流</text><g><text font-family="Calibri,Calibri_MSFontService,sans-serif" font-weight="400" font-size="64" transform="matrix(1 0 0 1 32.0837 1375)">13:00</text></g><text font-family="Calibri,Calibri_MSFontService,sans-serif" font-weight="400" font-size="64" transform="matrix(1 0 0 1 179.896 1375)">-</text><text font-family="Calibri,Calibri_MSFontService,sans-serif" font-weight="400" font-size="64" transform="matrix(1 0 0 1 213.698 1375)">15:30</text><text font-family="Microsoft JhengHei,Microsoft JhengHei_MSFontService,sans-serif" font-weight="400" font-size="64" transform="matrix(1 0 0 1 1511.14 1620)">賦歸</text><g><text font-family="Calibri,Calibri_MSFontService,sans-serif" font-weight="400" font-size="64" transform="matrix(1 0 0 1 32.0837 1619)">15:30</text></g><text font-family="Calibri,Calibri_MSFontService,sans-serif" font-weight="400" font-size="64" transform="matrix(1 0 0 1 179.896 1619)">-</text></g></svg>