<svg width="2663" height="2483" xmlns="http://www.w3.org/2000/svg" xmlns:xlink="http://www.w3.org/1999/xlink" xml:space="preserve" overflow="hidden"><g transform="translate(-58 3)"><path d="M60.3657 0.000360892 490.976 0.000360892 490.976 165.118 60.3657 165.118Z" fill="#BCD5ED" fill-rule="evenodd"/><path d="M490.976 0.000360892 2704.54 0.000360892 2704.54 165.118 490.976 165.118Z" fill="#BCD5ED" fill-rule="evenodd"/><path d="M60.3657 788.726 490.976 788.726 490.976 953.843 60.3657 953.843Z" fill="#BCD5ED" fill-rule="evenodd"/><path d="M490.976 788.726 2704.54 788.726 2704.54 953.843 490.976 953.843Z" fill="#BCD5ED" fill-rule="evenodd"/><path d="M2265.18 1417.01 2704.54 1417.01 2704.54 2176.96 2265.18 2176.96Z" fill="#BCD5ED" fill-rule="evenodd"/><path d="M60.3657 1683.09 490.976 1683.09 490.976 1861.58 60.3657 1861.58Z" fill="#BCD5ED" fill-rule="evenodd"/><path d="M490.976 1683.09 2265.18 1683.09 2265.18 1861.58 490.976 1861.58Z" fill="#BCD5ED" fill-rule="evenodd"/><path d="M60.3657 2176.96 490.976 2176.96 490.976 2325.98 60.3657 2325.98Z" fill="#BCD5ED" fill-rule="evenodd"/><path d="M490.976 2176.96 2704.54 2176.96 2704.54 2325.98 490.976 2325.98Z" fill="#BCD5ED" fill-rule="evenodd"/><path d="M490.976-2.29131 490.976 2477.29" stroke="#000000" stroke-width="4.58333" stroke-linejoin="round" stroke-miterlimit="10" fill="none" fill-rule="evenodd"/><path d="M896.546 1414.71 896.546 1685.38" stroke="#000000" stroke-width="4.58333" stroke-linejoin="round" stroke-miterlimit="10" fill="none" fill-rule="evenodd"/><path d="M896.546 1859.29 896.546 2179.25" stroke="#000000" stroke-width="4.58333" stroke-linejoin="round" stroke-miterlimit="10" fill="none" fill-rule="evenodd"/><path d="M1349.21 1414.71 1349.21 1685.38" stroke="#000000" stroke-width="4.58333" stroke-linejoin="round" stroke-miterlimit="10" fill="none" fill-rule="evenodd"/><path d="M1349.21 1859.29 1349.21 2179.25" stroke="#000000" stroke-width="4.58333" stroke-linejoin="round" stroke-miterlimit="10" fill="none" fill-rule="evenodd"/><path d="M1790.71 1414.71 1790.71 1685.38" stroke="#000000" stroke-width="4.58333" stroke-linejoin="round" stroke-miterlimit="10" fill="none" fill-rule="evenodd"/><path d="M1790.71 1859.29 1790.71 2179.25" stroke="#000000" stroke-width="4.58333" stroke-linejoin="round" stroke-miterlimit="10" fill="none" fill-rule="evenodd"/><path d="M2265.18 1414.71 2265.18 2179.25" stroke="#000000" stroke-width="4.58333" stroke-linejoin="round" stroke-miterlimit="10" fill="none" fill-rule="evenodd"/><path d="M2704.54-2.29131 2704.54 2477.29" stroke="#000000" stroke-width="4.58333" stroke-linejoin="round" stroke-miterlimit="10" fill="none" fill-rule="evenodd"/><path d="M58.0741 165.118 2706.83 165.118" stroke="#000000" stroke-width="4.58333" stroke-linejoin="round" stroke-miterlimit="10" fill="none" fill-rule="evenodd"/><path d="M58.0741 330.236 2706.83 330.236" stroke="#000000" stroke-width="4.58333" stroke-linejoin="round" stroke-miterlimit="10" fill="none" fill-rule="evenodd"/><path d="M58.0741 495.353 2706.83 495.353" stroke="#000000" stroke-width="4.58333" stroke-linejoin="round" stroke-miterlimit="10" fill="none" fill-rule="evenodd"/><path d="M58.0741 788.726 2706.83 788.726" stroke="#000000" stroke-width="4.58333" stroke-linejoin="round" stroke-miterlimit="10" fill="none" fill-rule="evenodd"/><path d="M58.0741 953.843 2706.83 953.843" stroke="#000000" stroke-width="4.58333" stroke-linejoin="round" stroke-miterlimit="10" fill="none" fill-rule="evenodd"/><path d="M58.0741 1267.98 2706.83 1267.98" stroke="#000000" stroke-width="4.58333" stroke-linejoin="round" stroke-miterlimit="10" fill="none" fill-rule="evenodd"/><path d="M58.0741 1417.01 2706.83 1417.01" stroke="#000000" stroke-width="4.58333" stroke-linejoin="round" stroke-miterlimit="10" fill="none" fill-rule="evenodd"/><path d="M58.0741 1683.09 2267.47 1683.09" stroke="#000000" stroke-width="4.58333" stroke-linejoin="round" stroke-miterlimit="10" fill="none" fill-rule="evenodd"/><path d="M58.0741 1861.58 2267.47 1861.58" stroke="#000000" stroke-width="4.58333" stroke-linejoin="round" stroke-miterlimit="10" fill="none" fill-rule="evenodd"/><path d="M58.0741 2176.96 2706.83 2176.96" stroke="#000000" stroke-width="4.58333" stroke-linejoin="round" stroke-miterlimit="10" fill="none" fill-rule="evenodd"/><path d="M58.0741 2325.98 2706.83 2325.98" stroke="#000000" stroke-width="4.58333" stroke-linejoin="round" stroke-miterlimit="10" fill="none" fill-rule="evenodd"/><path d="M60.3657-2.29131 60.3657 2477.29" stroke="#000000" stroke-width="4.58333" stroke-linejoin="round" stroke-miterlimit="10" fill="none" fill-rule="evenodd"/><path d="M58.0741 0.000360892 2706.83 0.000360892" stroke="#000000" stroke-width="4.58333" stroke-linejoin="round" stroke-miterlimit="10" fill="none" fill-rule="evenodd"/><path d="M58.0741 2475 2706.83 2475" stroke="#000000" stroke-width="4.58333" stroke-linejoin="round" stroke-miterlimit="10" fill="none" fill-rule="evenodd"/><text font-family="Microsoft JhengHei,Microsoft JhengHei_MSFontService,sans-serif" font-weight="400" font-size="64" transform="matrix(1 0 0 1 1533.59 105)">議程</text><g><text font-family="Microsoft JhengHei,Microsoft JhengHei_MSFontService,sans-serif" font-weight="400" font-size="64" transform="matrix(1 0 0 1 92.0196 105)">時間</text></g><text font-family="Microsoft JhengHei,Microsoft JhengHei_MSFontService,sans-serif" font-weight="400" font-size="64" transform="matrix(1 0 0 1 1533.59 270)">報到</text><g><text font-family="Calibri,Calibri_MSFontService,sans-serif" font-weight="400" font-size="64" transform="matrix(1 0 0 1 92.0196 269)">09:00</text></g><text font-family="Calibri,Calibri_MSFontService,sans-serif" font-weight="400" font-size="64" transform="matrix(1 0 0 1 239.832 269)">-</text><text font-family="Calibri,Calibri_MSFontService,sans-serif" font-weight="400" font-size="64" transform="matrix(1 0 0 1 273.634 269)">10:00</text><text font-family="Microsoft JhengHei,Microsoft JhengHei_MSFontService,sans-serif" font-weight="400" font-size="64" transform="matrix(1 0 0 1 718.042 435)">開幕</text><text font-family="Calibri,Calibri_MSFontService,sans-serif" font-weight="400" font-size="64" transform="matrix(1 0 0 1 846.375 435)">, </text><text font-family="Microsoft JhengHei,Microsoft JhengHei_MSFontService,sans-serif" font-weight="400" font-size="64" transform="matrix(1 0 0 1 876.74 435)">台灣流體力學學會會員大會</text><text font-family="Calibri,Calibri_MSFontService,sans-serif" font-weight="400" font-size="64" transform="matrix(1 0 0 1 1646.74 435)">, </text><text font-family="Microsoft JhengHei,Microsoft JhengHei_MSFontService,sans-serif" font-weight="400" font-size="64" transform="matrix(1 0 0 1 1677.1 435)">年輕學者著作獎頒獎</text><text font-family="Calibri,Calibri_MSFontService,sans-serif" font-weight="400" font-size="64" transform="matrix(1 0 0 1 2254.6 435)">, </text><text font-family="Microsoft JhengHei,Microsoft JhengHei_MSFontService,sans-serif" font-weight="400" font-size="64" transform="matrix(1 0 0 1 2284.97 435)">大合照</text><g><text font-family="Calibri,Calibri_MSFontService,sans-serif" font-weight="400" font-size="64" transform="matrix(1 0 0 1 92.0196 434)">10:00</text></g><text font-family="Calibri,Calibri_MSFontService,sans-serif" font-weight="400" font-size="64" transform="matrix(1 0 0 1 239.832 434)">-</text><text font-family="Calibri,Calibri_MSFontService,sans-serif" font-weight="400" font-size="64" transform="matrix(1 0 0 1 273.634 434)">10:50</text><text font-family="Microsoft JhengHei,Microsoft JhengHei_MSFontService,sans-serif" font-weight="400" font-size="64" transform="matrix(1 0 0 1 1454.24 626)">主題演講</text><text font-family="Calibri,Calibri_MSFontService,sans-serif" font-weight="400" font-size="64" transform="matrix(1 0 0 1 1725.23 626)">I</text><text font-family="Microsoft JhengHei,Microsoft JhengHei_MSFontService,sans-serif" font-weight="400" font-size="64" transform="matrix(1 0 0 1 743.823 703)">許泰文</text><text font-family="Microsoft JhengHei,Microsoft JhengHei_MSFontService,sans-serif" font-weight="400" font-size="64" transform="matrix(1 0 0 1 1073.82 703)">講座教授兼校長</text><text font-family="Calibri,Calibri_MSFontService,sans-serif" font-weight="400" font-size="64" transform="matrix(1 0 0 1 1522.99 703)">, </text><text font-family="Microsoft JhengHei,Microsoft JhengHei_MSFontService,sans-serif" font-weight="400" font-size="64" transform="matrix(1 0 0 1 1553.35 703)">國立臺灣海洋大學河海工程學系</text><g><text font-family="Calibri,Calibri_MSFontService,sans-serif" font-weight="400" font-size="64" transform="matrix(1 0 0 1 92.0196 664)">10:50</text></g><text font-family="Calibri,Calibri_MSFontService,sans-serif" font-weight="400" font-size="64" transform="matrix(1 0 0 1 239.832 664)">-</text><text font-family="Calibri,Calibri_MSFontService,sans-serif" font-weight="400" font-size="64" transform="matrix(1 0 0 1 273.634 664)">11:40</text><text font-family="Microsoft JhengHei,Microsoft JhengHei_MSFontService,sans-serif" font-weight="400" font-size="64" transform="matrix(1 0 0 1 1533.59 894)">午餐</text><g><text font-family="Calibri,Calibri_MSFontService,sans-serif" font-weight="400" font-size="64" transform="matrix(1 0 0 1 92.0196 893)">11:40</text></g><text font-family="Calibri,Calibri_MSFontService,sans-serif" font-weight="400" font-size="64" transform="matrix(1 0 0 1 239.832 893)">-</text><text font-family="Calibri,Calibri_MSFontService,sans-serif" font-weight="400" font-size="64" transform="matrix(1 0 0 1 273.634 893)">13:00</text><text font-family="Microsoft JhengHei,Microsoft JhengHei_MSFontService,sans-serif" font-weight="400" font-size="64" transform="matrix(1 0 0 1 1080.41 1133)">年輕學者獎</text><text font-family="Calibri,Calibri_MSFontService,sans-serif" font-weight="400" font-size="64" transform="matrix(1 0 0 1 1415.57 1133)">1: </text><text font-family="Microsoft JhengHei,Microsoft JhengHei_MSFontService,sans-serif" font-weight="400" font-size="64" transform="matrix(1 0 0 1 1479.73 1133)">年輕著作獎</text><text font-family="Calibri,Calibri_MSFontService,sans-serif" font-weight="400" font-size="64" transform="matrix(1 0 0 1 1800.57 1133)">—</text><text font-family="Microsoft JhengHei,Microsoft JhengHei_MSFontService,sans-serif" font-weight="400" font-size="64" transform="matrix(1 0 0 1 1858.43 1133)">邀請演講</text><g><text font-family="Calibri,Calibri_MSFontService,sans-serif" font-weight="400" font-size="64" transform="matrix(1 0 0 1 92.0196 1132)">13:00</text></g><text font-family="Calibri,Calibri_MSFontService,sans-serif" font-weight="400" font-size="64" transform="matrix(1 0 0 1 239.832 1132)">-</text><text font-family="Calibri,Calibri_MSFontService,sans-serif" font-weight="400" font-size="64" transform="matrix(1 0 0 1 273.634 1132)">13:40</text><text font-family="Microsoft JhengHei,Microsoft JhengHei_MSFontService,sans-serif" font-weight="400" font-size="64" transform="matrix(1 0 0 1 1083.56 1365)">年輕學者獎</text><text font-family="Calibri,Calibri_MSFontService,sans-serif" font-weight="400" font-size="64" transform="matrix(1 0 0 1 1418.72 1365)">2: </text><text font-family="Microsoft JhengHei,Microsoft JhengHei_MSFontService,sans-serif" font-weight="400" font-size="64" transform="matrix(1 0 0 1 1482.89 1365)">優秀學者</text><text font-family="Calibri,Calibri_MSFontService,sans-serif" font-weight="400" font-size="64" transform="matrix(1 0 0 1 1739.55 1365)">——</text><text font-family="Microsoft JhengHei,Microsoft JhengHei_MSFontService,sans-serif" font-weight="400" font-size="64" transform="matrix(1 0 0 1 1855.28 1365)">邀請演講</text><g><text font-family="Calibri,Calibri_MSFontService,sans-serif" font-weight="400" font-size="64" transform="matrix(1 0 0 1 92.0196 1364)">13:40</text></g><text font-family="Calibri,Calibri_MSFontService,sans-serif" font-weight="400" font-size="64" transform="matrix(1 0 0 1 239.832 1364)">-</text><text font-family="Calibri,Calibri_MSFontService,sans-serif" font-weight="400" font-size="64" transform="matrix(1 0 0 1 273.634 1364)">14:20</text><text font-family="Microsoft JhengHei,Microsoft JhengHei_MSFontService,sans-serif" font-weight="400" font-size="64" transform="matrix(1 0 0 1 2348.5 1819)">海報發表</text><text font-family="Calibri,Calibri_MSFontService,sans-serif" font-weight="400" font-size="64" transform="matrix(1 0 0 1 2605.17 1819)">I</text><text font-family="Microsoft JhengHei,Microsoft JhengHei_MSFontService,sans-serif" font-weight="400" font-size="64" transform="matrix(1 0 0 1 2356.52 1896)">論文競賽</text><text font-family="Microsoft JhengHei,Microsoft JhengHei_MSFontService,sans-serif" font-weight="400" font-size="64" transform="matrix(1 0 0 1 1835.44 1573)">國外學者論壇</text><text font-family="Microsoft JhengHei,Microsoft JhengHei_MSFontService,sans-serif" font-weight="400" font-size="64" transform="matrix(1 0 0 1 1441.62 1527)">專題論壇</text><g><text font-family="Microsoft JhengHei,Microsoft JhengHei_MSFontService,sans-serif" font-weight="400" font-size="64" transform="matrix(1 0 0 1 1377.46 1617)">流固耦合分析</text></g><text font-family="Microsoft JhengHei,Microsoft JhengHei_MSFontService,sans-serif" font-weight="400" font-size="64" transform="matrix(1 0 0 1 994.545 1489)">專題論壇</text><g><text font-family="Microsoft JhengHei,Microsoft JhengHei_MSFontService,sans-serif" font-weight="400" font-size="64" transform="matrix(1 0 0 1 930.378 1581)">高速運算與計</text></g><text font-family="Microsoft JhengHei,Microsoft JhengHei_MSFontService,sans-serif" font-weight="400" font-size="64" transform="matrix(1 0 0 1 1026.63 1656)">算方法</text><text font-family="Microsoft JhengHei,Microsoft JhengHei_MSFontService,sans-serif" font-weight="400" font-size="64" transform="matrix(1 0 0 1 565.427 1527)">專題論壇</text><text font-family="Microsoft JhengHei,Microsoft JhengHei_MSFontService,sans-serif" font-weight="400" font-size="64" transform="matrix(1 0 0 1 565.427 1617)">海嘯模擬</text><g><text font-family="Calibri,Calibri_MSFontService,sans-serif" font-weight="400" font-size="64" transform="matrix(1 0 0 1 92.0196 1572)">14:20</text></g><text font-family="Calibri,Calibri_MSFontService,sans-serif" font-weight="400" font-size="64" transform="matrix(1 0 0 1 239.832 1572)">-</text><text font-family="Calibri,Calibri_MSFontService,sans-serif" font-weight="400" font-size="64" transform="matrix(1 0 0 1 273.634 1572)">15:50</text><text font-family="Microsoft JhengHei,Microsoft JhengHei_MSFontService,sans-serif" font-weight="400" font-size="64" transform="matrix(1 0 0 1 1313.91 1796)">茶敘</text><g><text font-family="Calibri,Calibri_MSFontService,sans-serif" font-weight="400" font-size="64" transform="matrix(1 0 0 1 92.0196 1794)">15:40</text></g><text font-family="Calibri,Calibri_MSFontService,sans-serif" font-weight="400" font-size="64" transform="matrix(1 0 0 1 239.832 1794)">-</text><text font-family="Calibri,Calibri_MSFontService,sans-serif" font-weight="400" font-size="64" transform="matrix(1 0 0 1 273.634 1794)">16:00</text><text font-family="Microsoft JhengHei,Microsoft JhengHei_MSFontService,sans-serif" font-weight="400" font-size="64" transform="matrix(1 0 0 1 1505.79 2042)">論壇</text><text font-family="Microsoft JhengHei,Microsoft JhengHei_MSFontService,sans-serif" font-weight="400" font-size="64" transform="matrix(1 0 0 1 1058.7 1996)">論壇</text><g><text font-family="Calibri,Calibri_MSFontService,sans-serif" font-weight="400" font-size="64" transform="matrix(1 0 0 1 932.75 2086)">Oral </text></g><g><text font-family="Microsoft JhengHei,Microsoft JhengHei_MSFontService,sans-serif" font-weight="400" font-size="64" transform="matrix(1 0 0 1 1056.34 2086)">論文競賽</text></g><text font-family="Microsoft JhengHei,Microsoft JhengHei_MSFontService,sans-serif" font-weight="400" font-size="64" transform="matrix(1 0 0 1 629.583 1996)">論壇</text><g><text font-family="Calibri,Calibri_MSFontService,sans-serif" font-weight="400" font-size="64" transform="matrix(1 0 0 1 503.633 2086)">Oral </text></g><g><text font-family="Microsoft JhengHei,Microsoft JhengHei_MSFontService,sans-serif" font-weight="400" font-size="64" transform="matrix(1 0 0 1 627.222 2086)">論文競賽</text></g><g><text font-family="Calibri,Calibri_MSFontService,sans-serif" font-weight="400" font-size="64" transform="matrix(1 0 0 1 92.0196 2041)">16:00</text></g><text font-family="Calibri,Calibri_MSFontService,sans-serif" font-weight="400" font-size="64" transform="matrix(1 0 0 1 239.832 2041)">-</text><text font-family="Calibri,Calibri_MSFontService,sans-serif" font-weight="400" font-size="64" transform="matrix(1 0 0 1 273.634 2041)">17:30</text><text font-family="Microsoft JhengHei,Microsoft JhengHei_MSFontService,sans-serif" font-weight="400" font-size="64" transform="matrix(1 0 0 1 1309.01 2274)">交流活動，評審會議</text><g><text font-family="Calibri,Calibri_MSFontService,sans-serif" font-weight="400" font-size="64" transform="matrix(1 0 0 1 92.0196 2273)">17:30</text></g><text font-family="Calibri,Calibri_MSFontService,sans-serif" font-weight="400" font-size="64" transform="matrix(1 0 0 1 239.832 2273)">-</text><text font-family="Calibri,Calibri_MSFontService,sans-serif" font-weight="400" font-size="64" transform="matrix(1 0 0 1 273.634 2273)">17:50</text><text font-family="Microsoft JhengHei,Microsoft JhengHei_MSFontService,sans-serif" font-weight="400" font-size="64" transform="matrix(1 0 0 1 1282.36 2423)">晚宴</text><text font-family="Calibri,Calibri_MSFontService,sans-serif" font-weight="400" font-size="64" transform="matrix(1 0 0 1 1425.02 2423)">/ </text><text font-family="Microsoft JhengHei,Microsoft JhengHei_MSFontService,sans-serif" font-weight="400" font-size="64" text-decoration="underline" transform="matrix(1 0 0 1 1463.98 2423)">最佳論文獎</text><text font-family="Microsoft JhengHei,Microsoft JhengHei_MSFontService,sans-serif" font-weight="400" font-size="64" transform="matrix(1 0 0 1 1784.81 2423)">頒獎</text><g><text font-family="Calibri,Calibri_MSFontService,sans-serif" font-weight="400" font-size="64" transform="matrix(1 0 0 1 92.0196 2422)">18:00</text></g><text font-family="Calibri,Calibri_MSFontService,sans-serif" font-weight="400" font-size="64" transform="matrix(1 0 0 1 239.832 2422)">-</text><text font-family="Calibri,Calibri_MSFontService,sans-serif" font-weight="400" font-size="64" transform="matrix(1 0 0 1 273.634 2422)">20:30</text></g></svg>